<svg id="svg" version="1.1" width="186" height="270" viewBox="0 0 186 270" xmlns="http://www.w3.org/2000/svg"><path d="M66.750 20.662 C 67.438 20.940,68.563 20.940,69.250 20.662 C 69.938 20.385,69.375 20.158,68.000 20.158 C 66.625 20.158,66.063 20.385,66.750 20.662 M71.813 20.683 C 72.534 20.972,73.397 20.936,73.729 20.604 C 74.061 20.272,73.471 20.036,72.417 20.079 C 71.252 20.127,71.015 20.364,71.813 20.683 M89.746 21.776 C 90.056 22.587,90.645 22.717,91.367 22.133 C 91.990 21.628,93.400 20.990,94.500 20.714 C 95.600 20.439,94.870 20.278,92.879 20.357 C 90.394 20.455,89.411 20.900,89.746 21.776 M95.813 22.683 C 96.534 22.972,97.397 22.936,97.729 22.604 C 98.061 22.272,97.471 22.036,96.417 22.079 C 95.252 22.127,95.015 22.364,95.813 22.683 M65.257 44.226 C 64.691 44.927,62.102 49.752,59.504 54.950 C 56.905 60.147,52.961 67.347,50.739 70.950 C 42.898 83.659,41.686 86.058,43.447 85.382 C 44.862 84.839,44.914 85.095,43.860 87.409 C 42.989 89.319,42.427 89.701,41.842 88.778 C 41.310 87.940,41.025 88.427,41.015 90.191 C 41.007 91.671,41.392 93.124,41.871 93.420 C 42.350 93.717,42.540 95.708,42.293 97.846 C 41.910 101.162,42.243 102.046,44.557 103.866 C 46.049 105.040,47.772 105.993,48.385 105.985 C 49.095 105.975,49.045 105.681,48.249 105.175 C 47.304 104.575,47.513 103.826,49.099 102.124 C 51.132 99.942,51.141 99.822,49.351 98.477 C 48.034 97.487,49.311 97.626,53.778 98.960 C 73.239 104.769,108.821 105.017,130.637 99.496 C 136.061 98.123,141.625 96.168,143.000 95.151 C 148.205 91.302,146.127 85.369,138.000 80.873 C 135.383 79.425,135.131 79.096,137.000 79.571 C 138.375 79.920,140.934 81.027,142.687 82.032 C 145.525 83.658,146.011 83.691,147.137 82.335 C 148.190 81.067,147.991 80.494,145.951 78.917 C 138.155 72.891,120.805 69.617,96.323 69.550 C 79.077 69.503,78.227 69.410,79.728 67.750 C 81.575 65.707,82.639 65.414,81.372 67.297 C 80.893 68.011,81.247 67.786,82.160 66.797 C 83.073 65.809,84.241 65.000,84.755 65.000 C 85.853 65.000,89.000 61.700,89.000 60.549 C 89.000 60.112,88.213 60.373,87.250 61.128 C 85.659 62.376,85.626 62.339,86.893 60.726 C 87.658 59.750,88.535 59.202,88.841 59.507 C 89.840 60.507,91.693 55.847,91.240 53.474 C 90.996 52.200,89.749 50.174,88.469 48.971 C 86.246 46.882,85.995 46.856,82.917 48.392 C 78.682 50.504,78.482 50.440,80.363 47.569 C 81.835 45.321,81.825 45.108,80.228 44.739 C 79.267 44.517,77.058 45.683,75.250 47.366 C 71.911 50.475,70.921 50.010,73.532 46.559 C 77.503 41.309,72.135 41.779,67.963 47.046 C 64.288 51.687,63.088 51.664,65.500 47.000 C 67.207 43.699,67.058 41.995,65.257 44.226 M102.957 50.250 C 101.100 52.587,100.370 53.865,101.337 53.089 C 103.157 51.627,107.442 46.000,106.735 46.000 C 106.515 46.000,104.815 47.913,102.957 50.250 M94.405 59.250 L 92.500 61.500 94.750 59.595 C 95.987 58.547,97.000 57.535,97.000 57.345 C 97.000 56.545,96.195 57.136,94.405 59.250 M117.303 74.568 L 123.500 75.839 117.000 75.169 C 106.706 74.109,73.910 74.498,69.750 75.729 C 65.370 77.025,64.781 76.468,68.750 74.784 C 75.214 72.041,104.341 71.911,117.303 74.568 M129.000 77.000 C 131.010 77.644,131.108 77.806,129.500 77.830 C 128.400 77.846,126.600 77.473,125.500 77.000 C 122.952 75.905,125.581 75.905,129.000 77.000 M70.500 80.024 C 59.684 82.023,57.374 82.293,58.203 81.464 C 59.229 80.437,71.530 78.159,76.000 78.168 C 79.373 78.174,77.996 78.639,70.500 80.024 M117.500 79.000 L 119.500 79.859 117.500 79.872 C 116.400 79.879,113.700 79.512,111.500 79.057 L 107.500 78.230 111.500 78.185 C 113.700 78.161,116.400 78.527,117.500 79.000 M80.762 83.687 C 79.806 83.937,78.006 83.946,76.762 83.707 C 75.518 83.468,76.300 83.263,78.500 83.252 C 80.700 83.241,81.718 83.437,80.762 83.687 M116.500 83.943 L 120.500 84.770 117.000 84.827 C 115.075 84.859,111.700 84.512,109.500 84.057 L 105.500 83.230 109.000 83.173 C 110.925 83.141,114.300 83.488,116.500 83.943 M71.000 84.979 C 64.138 86.505,60.655 87.012,61.272 86.394 C 62.203 85.463,68.075 84.205,71.500 84.203 C 74.403 84.201,74.387 84.226,71.000 84.979 M46.526 96.807 C 46.219 97.115,45.412 96.808,44.733 96.124 C 43.753 95.136,43.868 95.022,45.293 95.564 C 46.279 95.940,46.834 96.499,46.526 96.807 M73.123 105.648 C 73.740 106.392,74.833 107.000,75.553 107.000 C 76.524 107.000,76.644 107.756,76.017 109.942 C 75.284 112.497,75.457 112.939,77.337 113.306 C 78.562 113.545,77.765 113.820,75.500 113.940 L 71.500 114.152 74.940 115.395 C 80.030 117.234,79.817 118.755,74.355 119.574 L 69.591 120.288 74.295 121.790 C 79.041 123.304,80.742 126.000,76.952 126.000 C 75.075 126.000,74.929 126.521,75.202 132.250 L 75.500 138.500 80.000 139.137 C 82.987 139.559,81.979 139.663,77.000 139.444 L 69.500 139.115 74.250 140.703 C 79.324 142.400,80.428 143.915,76.750 144.134 C 72.148 144.407,84.790 145.828,92.500 145.904 C 102.152 145.999,111.574 144.973,109.996 143.998 C 109.166 143.485,109.235 142.908,110.249 141.895 C 111.443 140.702,109.757 140.521,98.572 140.643 C 85.036 140.792,85.911 140.447,101.666 139.422 L 110.831 138.826 111.166 132.792 C 111.438 127.876,111.168 126.526,109.705 125.504 C 108.147 124.415,108.114 124.170,109.455 123.656 C 113.371 122.153,110.063 121.497,99.250 121.633 C 87.495 121.780,88.090 121.618,104.000 120.338 C 108.675 119.963,111.713 119.475,110.750 119.254 C 109.787 119.034,109.000 118.459,109.000 117.976 C 109.000 117.494,109.787 116.641,110.750 116.080 C 112.019 115.341,109.062 114.995,100.000 114.823 C 88.316 114.600,88.120 114.566,97.000 114.294 C 109.394 113.913,110.952 113.532,110.300 111.040 C 110.015 109.950,110.503 108.354,111.393 107.464 C 112.277 106.580,113.000 105.552,112.999 105.179 C 112.998 104.805,103.774 104.454,92.500 104.398 C 75.385 104.314,72.187 104.520,73.123 105.648 M42.210 107.302 C 43.469 108.568,45.400 110.255,46.500 111.052 C 48.388 112.419,48.416 112.393,47.000 110.593 C 45.565 108.769,45.674 108.713,49.500 109.310 C 51.700 109.654,52.825 109.666,52.000 109.338 C 51.175 109.010,48.612 107.899,46.305 106.871 C 40.713 104.377,39.433 104.512,42.210 107.302 M41.000 112.000 C 41.000 112.550,41.430 113.000,41.955 113.000 C 42.913 113.000,43.719 116.398,44.351 123.095 C 44.779 127.636,45.425 128.651,49.093 130.548 L 52.059 132.082 51.329 129.291 C 50.928 127.756,50.588 124.805,50.573 122.733 C 50.550 119.591,50.086 118.763,47.773 117.739 C 44.064 116.097,44.269 115.184,48.250 115.611 C 51.327 115.940,51.244 115.827,46.683 113.479 C 41.240 110.678,41.000 110.616,41.000 112.000 M83.250 114.662 C 82.563 114.940,81.438 114.940,80.750 114.662 C 80.063 114.385,80.625 114.158,82.000 114.158 C 83.375 114.158,83.938 114.385,83.250 114.662 M82.264 120.704 C 81.034 120.941,78.784 120.947,77.264 120.718 C 75.744 120.488,76.750 120.294,79.500 120.286 C 82.250 120.279,83.494 120.467,82.264 120.704 M43.250 131.249 C 44.071 132.487,45.051 133.368,45.426 133.206 C 45.801 133.044,46.871 133.741,47.804 134.753 C 48.737 135.766,49.050 135.935,48.500 135.128 C 47.660 133.897,48.048 133.771,50.927 134.342 C 55.220 135.192,54.892 134.925,47.628 131.648 C 41.817 129.027,41.771 129.022,43.250 131.249 M43.000 135.803 C 43.000 137.596,47.706 140.508,50.843 140.655 C 52.658 140.741,53.999 140.682,53.822 140.526 C 52.370 139.241,43.000 135.151,43.000 135.803 M44.441 142.474 C 45.509 143.313,45.959 144.030,45.441 144.067 C 44.924 144.104,46.507 144.759,48.960 145.523 C 51.413 146.288,53.538 146.795,53.682 146.651 C 53.826 146.507,51.369 145.165,48.222 143.669 C 45.075 142.173,43.374 141.635,44.441 142.474 M70.813 145.683 C 71.534 145.972,72.397 145.936,72.729 145.604 C 73.061 145.272,72.471 145.036,71.417 145.079 C 70.252 145.127,70.015 145.364,70.813 145.683 M43.000 146.352 C 43.000 146.559,44.395 148.252,46.100 150.114 C 47.805 151.977,48.874 152.889,48.475 152.143 C 47.916 151.098,48.296 150.954,50.125 151.517 C 51.431 151.919,52.275 152.028,52.000 151.759 C 51.022 150.801,43.000 145.982,43.000 146.352 M76.250 147.211 C 79.582 148.634,79.807 149.952,76.750 150.134 C 70.944 150.478,85.704 151.821,95.000 151.794 C 103.935 151.768,114.633 150.550,110.000 150.087 C 108.826 149.969,108.922 149.617,110.441 148.468 C 112.182 147.152,111.096 146.999,99.941 146.993 C 93.099 146.989,84.350 146.772,80.500 146.511 C 74.506 146.105,73.895 146.206,76.250 147.211 M70.813 151.683 C 71.534 151.972,72.397 151.936,72.729 151.604 C 73.061 151.272,72.471 151.036,71.417 151.079 C 70.252 151.127,70.015 151.364,70.813 151.683 M77.000 153.906 C 80.345 155.827,80.389 155.924,78.000 156.083 C 72.307 156.464,85.148 157.853,94.500 157.868 C 103.265 157.883,115.865 156.477,110.500 156.083 C 108.526 155.938,108.525 155.917,110.441 154.468 C 112.180 153.153,111.022 153.000,99.338 153.000 C 92.163 153.000,83.415 152.752,79.897 152.448 L 73.500 151.897 77.000 153.906 M45.000 154.500 C 45.685 155.325,46.891 156.000,47.681 156.000 C 48.472 156.000,48.910 156.338,48.655 156.750 C 48.400 157.162,49.321 157.568,50.702 157.651 C 52.936 157.785,52.789 157.542,49.356 155.432 C 44.918 152.705,43.206 152.338,45.000 154.500 M46.000 160.258 C 47.375 161.635,49.849 163.076,51.498 163.462 C 55.077 164.298,54.931 164.157,48.500 160.556 C 43.525 157.770,43.513 157.769,46.000 160.258 M76.000 159.553 C 79.086 161.013,79.269 161.295,77.543 161.940 C 76.203 162.441,77.591 162.881,81.939 163.336 C 94.588 164.658,110.573 163.736,109.349 161.755 C 109.016 161.217,109.364 160.384,110.122 159.904 C 110.950 159.379,106.514 159.022,99.000 159.008 C 92.125 158.996,83.350 158.741,79.500 158.442 L 72.500 157.898 76.000 159.553 M71.000 163.563 C 78.589 166.459,80.159 167.418,78.356 168.055 C 77.279 168.435,79.729 169.015,84.190 169.435 C 92.669 170.234,110.885 169.165,108.969 167.981 C 108.089 167.437,108.232 166.970,109.494 166.263 C 110.693 165.593,105.718 165.101,93.364 164.670 C 83.539 164.328,74.150 163.810,72.500 163.519 C 70.850 163.229,70.175 163.248,71.000 163.563 M46.500 165.745 C 47.600 166.870,49.625 168.119,51.000 168.520 C 54.045 169.407,53.657 169.020,48.500 166.023 C 44.884 163.922,44.692 163.895,46.500 165.745 M45.990 170.488 C 47.398 172.185,52.953 175.397,53.488 174.824 C 53.654 174.646,51.727 173.227,49.207 171.672 C 46.687 170.116,45.239 169.584,45.990 170.488 M74.386 170.481 C 76.523 171.311,78.798 172.709,79.441 173.589 C 80.408 174.910,82.911 175.197,93.845 175.240 C 105.838 175.288,107.254 175.105,108.946 173.288 C 110.808 171.290,110.767 171.283,93.657 170.662 C 84.220 170.320,75.150 169.800,73.500 169.506 C 71.018 169.065,71.171 169.233,74.386 170.481 M46.489 176.100 C 47.583 177.420,48.535 178.627,48.604 178.781 C 48.784 179.185,53.000 179.947,53.000 179.575 C 53.000 179.405,51.087 178.013,48.750 176.483 C 44.689 173.823,44.588 173.806,46.489 176.100 M75.500 176.929 C 79.111 178.652,79.257 178.858,77.000 179.044 C 75.377 179.178,76.079 179.531,79.000 180.051 C 85.001 181.119,105.981 181.083,108.500 180.000 C 109.600 179.527,110.050 179.095,109.500 179.038 C 108.950 178.982,109.220 178.388,110.100 177.718 C 111.385 176.740,109.214 176.500,99.100 176.500 C 92.170 176.500,83.125 176.167,79.000 175.760 L 71.500 175.020 75.500 176.929 M47.924 182.356 C 50.546 185.215,51.000 185.475,51.000 184.115 C 51.000 183.628,49.763 182.438,48.250 181.471 L 45.500 179.712 47.924 182.356 M74.872 182.168 C 78.317 183.491,79.798 184.507,78.999 185.000 C 77.027 186.219,93.187 187.280,101.931 186.506 C 107.874 185.980,109.736 185.475,109.358 184.489 C 109.079 183.763,109.669 182.984,110.677 182.748 C 111.679 182.514,105.525 182.274,97.000 182.216 C 88.475 182.158,79.076 181.636,76.114 181.055 C 68.793 179.621,68.627 179.769,74.872 182.168 M52.733 185.124 C 53.412 185.808,54.219 186.115,54.526 185.807 C 54.834 185.499,54.279 184.940,53.293 184.564 C 51.868 184.022,51.753 184.136,52.733 185.124 M47.701 187.161 C 49.493 189.086,56.000 192.536,56.000 191.563 C 56.000 191.418,53.638 189.836,50.750 188.049 C 46.373 185.339,45.866 185.191,47.701 187.161 M74.262 187.438 C 76.332 188.244,79.019 189.600,80.235 190.452 C 81.955 191.657,85.112 191.978,94.473 191.900 C 101.088 191.845,107.625 191.440,109.000 191.000 C 110.375 190.560,110.911 190.155,110.191 190.100 C 109.471 190.045,109.122 189.612,109.415 189.138 C 109.708 188.663,102.422 188.004,93.224 187.672 C 84.026 187.340,75.150 186.822,73.500 186.521 C 70.938 186.053,71.050 186.187,74.262 187.438 M76.813 190.683 C 77.534 190.972,78.397 190.936,78.729 190.604 C 79.061 190.272,78.471 190.036,77.417 190.079 C 76.252 190.127,76.015 190.364,76.813 190.683 M48.921 193.360 C 50.252 194.808,51.535 195.799,51.771 195.563 C 52.488 194.845,51.015 193.076,48.694 191.870 C 46.602 190.782,46.613 190.851,48.921 193.360 M76.333 193.650 C 78.671 194.645,79.714 195.559,79.008 195.995 C 77.120 197.162,92.666 198.167,101.152 197.426 C 106.565 196.954,109.000 196.339,109.000 195.444 C 109.000 194.731,109.787 193.990,110.750 193.797 C 111.713 193.605,106.425 193.454,99.000 193.462 C 91.575 193.469,82.575 193.148,79.000 192.748 L 72.500 192.021 76.333 193.650 M48.000 196.690 C 48.000 197.240,48.900 198.505,50.000 199.500 C 51.100 200.495,52.000 200.860,52.000 200.310 C 52.000 199.760,51.100 198.495,50.000 197.500 C 48.900 196.505,48.000 196.140,48.000 196.690 M75.500 198.907 C 77.700 199.977,78.825 200.937,78.000 201.041 C 73.768 201.575,85.817 202.877,94.500 202.824 C 105.368 202.758,109.387 202.114,109.704 200.387 C 109.844 199.624,104.653 199.094,93.204 198.703 C 84.017 198.389,75.375 197.869,74.000 197.548 C 72.557 197.210,73.190 197.785,75.500 198.907 M75.000 203.913 C 78.054 205.253,78.857 205.944,77.500 206.062 C 76.094 206.185,76.391 206.463,78.500 207.000 C 82.490 208.015,105.830 208.015,109.000 207.000 C 110.375 206.560,111.050 206.148,110.500 206.084 C 109.950 206.021,110.175 205.493,111.000 204.911 C 112.084 204.146,110.559 204.021,105.500 204.458 C 99.027 205.017,80.064 203.872,73.373 202.519 C 71.434 202.126,71.962 202.579,75.000 203.913 M51.226 204.574 C 52.176 205.568,53.227 206.107,53.562 205.771 C 53.897 205.436,53.120 204.623,51.836 203.964 C 49.603 202.819,49.576 202.846,51.226 204.574 M48.918 207.363 C 50.249 209.003,54.000 211.483,54.000 210.723 C 54.000 210.532,52.538 209.305,50.750 207.997 C 48.739 206.525,48.040 206.283,48.918 207.363 M74.979 209.075 C 76.343 209.642,78.290 210.857,79.306 211.777 C 80.828 213.155,83.390 213.448,93.884 213.448 C 105.081 213.448,106.920 213.208,109.146 211.457 L 111.676 209.467 98.588 209.483 C 91.390 209.493,82.575 209.173,79.000 208.773 C 74.163 208.231,73.134 208.309,74.979 209.075 M49.497 212.995 C 49.835 213.542,51.099 214.507,52.306 215.140 C 54.485 216.283,54.487 216.276,52.595 214.146 C 50.686 211.996,48.341 211.125,49.497 212.995 M74.968 214.490 C 76.875 215.368,78.771 216.630,79.181 217.293 C 79.706 218.143,84.089 218.500,94.000 218.500 C 105.429 218.500,108.248 218.218,109.004 217.000 C 109.810 215.700,107.837 215.415,94.217 214.865 C 85.573 214.516,76.925 213.929,75.000 213.562 L 71.500 212.894 74.968 214.490 M75.320 219.751 C 77.421 220.728,78.848 221.818,78.491 222.175 C 77.372 223.294,90.908 224.288,99.755 223.736 C 105.281 223.391,108.733 222.696,109.695 221.734 C 110.993 220.436,109.164 220.191,94.334 219.683 C 85.075 219.366,76.150 218.852,74.500 218.541 C 71.782 218.030,71.859 218.143,75.320 219.751 M75.500 225.083 L 79.500 227.017 75.500 226.455 C 73.300 226.146,70.656 225.644,69.625 225.340 C 68.484 225.003,67.998 225.188,68.385 225.814 C 69.575 227.739,69.733 232.922,68.614 233.319 C 66.618 234.027,75.146 237.004,82.410 238.136 C 88.967 239.157,106.444 238.889,107.584 237.749 C 107.857 237.476,108.453 234.897,108.908 232.017 C 109.363 229.137,110.325 226.417,111.044 225.973 C 111.763 225.528,105.635 225.164,97.426 225.163 C 89.217 225.162,80.475 224.686,78.000 224.105 C 71.592 222.601,70.915 222.866,75.500 225.083 M50.540 227.208 C 52.281 229.612,54.935 231.525,55.488 230.774 C 55.598 230.623,54.089 229.150,52.134 227.500 C 48.589 224.508,48.585 224.507,50.540 227.208 M47.783 232.500 C 49.398 235.641,54.678 241.989,55.223 241.444 C 55.494 241.173,56.284 241.638,56.980 242.476 C 57.676 243.314,58.702 244.000,59.260 244.000 C 59.818 244.000,58.614 242.680,56.584 241.067 C 54.554 239.453,51.940 236.866,50.775 235.317 C 47.724 231.258,46.602 230.202,47.783 232.500 M52.000 233.500 C 53.292 234.875,54.799 236.000,55.349 236.000 C 55.899 236.000,55.292 234.875,54.000 233.500 C 52.708 232.125,51.201 231.000,50.651 231.000 C 50.101 231.000,50.708 232.125,52.000 233.500 M73.493 238.838 C 76.100 240.035,76.968 240.845,75.993 241.172 C 72.766 242.254,91.396 244.254,98.840 243.625 C 105.643 243.051,114.134 241.337,111.500 241.071 C 110.950 241.015,111.175 240.497,112.000 239.919 C 113.169 239.101,112.995 239.011,111.212 239.514 C 105.164 241.219,82.135 240.042,71.500 237.485 C 70.400 237.221,71.297 237.830,73.493 238.838 M70.075 242.344 C 70.391 242.696,72.416 243.631,74.575 244.421 C 78.918 246.012,77.286 246.516,72.364 245.104 C 69.580 244.306,69.296 244.414,69.738 246.104 C 70.214 247.924,69.257 248.465,66.250 248.075 C 65.563 247.985,65.000 248.341,65.000 248.864 C 65.000 250.467,76.915 253.949,86.303 255.090 C 92.645 255.861,97.471 255.864,103.161 255.098 C 112.708 253.813,116.738 252.077,110.282 252.030 C 106.462 252.003,106.136 251.808,106.819 249.960 C 107.234 248.838,108.748 247.150,110.182 246.210 C 112.701 244.558,112.350 244.512,99.884 244.851 C 88.454 245.161,80.028 244.404,72.000 242.346 C 70.625 241.993,69.759 241.992,70.075 242.344 M61.000 244.430 C 61.000 244.705,61.900 245.411,63.000 246.000 C 64.100 246.589,65.000 246.845,65.000 246.570 C 65.000 246.295,64.100 245.589,63.000 245.000 C 61.900 244.411,61.000 244.155,61.000 244.430 M104.729 252.604 C 104.397 252.936,103.534 252.972,102.813 252.683 C 102.015 252.364,102.252 252.127,103.417 252.079 C 104.471 252.036,105.061 252.272,104.729 252.604 " stroke="none" fill="black" fill-rule="evenodd"/></svg>